<?xml version="1.0" encoding="UTF-8"?>
<!DOCTYPE svg PUBLIC "-//W3C//DTD SVG 1.0//EN" "http://www.w3.org/TR/2001/REC-SVG-20010904/DTD/svg10.dtd">
<!-- Creator: CorelDRAW 2020 (64 Bit) -->
<svg xmlns="http://www.w3.org/2000/svg" xml:space="preserve" width="297mm" height="210mm" version="1.0" style="shape-rendering:geometricPrecision; text-rendering:geometricPrecision; image-rendering:optimizeQuality; fill-rule:evenodd; clip-rule:evenodd"
viewBox="0 0 29700 21000"
 xmlns:xlink="http://www.w3.org/1999/xlink"
 xmlns:xodm="http://www.corel.com/coreldraw/odm/2003">
 <defs>
  <style type="text/css">
   <![CDATA[
    .str2 {stroke:#FEFEFE;stroke-width:20;stroke-miterlimit:22.9256}
    .str3 {stroke:#ED3237;stroke-width:20;stroke-miterlimit:22.9256}
    .str1 {stroke:#282829;stroke-width:20;stroke-miterlimit:22.9256}
    .str0 {stroke:#FEFEFE;stroke-width:20;stroke-miterlimit:22.9256}
    .fil3 {fill:#FEFEFE}
    .fil0 {fill:#282829}
    .fil1 {fill:#282829}
    .fil4 {fill:#C70C0C}
    .fil2 {fill:#C70C0C;fill-rule:nonzero}
   ]]>
  </style>
 </defs>
 <g id="Camada_x0020_1">
  <metadata id="CorelCorpID_0Corel-Layer"/>
  <g id="_1788500073696">
   <path class="fil0 str0" d="M26223.42 12282.67l2917.86 7024.65 -7659.54 0 -1410.79 -3664.64 0 3664.64 -6954.05 0 0 -11063.68 -338.25 0 0 5618.96 -4747.79 0 0 5444.72 -6823.39 0 0 -17015.9 20740.44 0c1683.63,0 3389.09,358.1 4702.93,1471 1235.27,1046.34 1826.78,2444.39 1826.78,4053.24 0,979.63 -195.64,1936.09 -657.22,2805.24 -367.87,692.7 -947.97,1233.99 -1596.98,1661.77zm-4874.78 -4225.79c0.56,-10.33 0.69,-20.75 0.69,-30.68 0,-30 -1.02,-66.61 -5.38,-99.14 -116.96,-41.68 -352.58,-53.64 -463.23,-53.64l-809.77 0 0 298.3 660.96 0c181.16,0 453.12,-18.86 616.73,-114.84z"/>
  </g>
  <g id="_2311341280896">
   <path class="fil1 str1" d="M13170.9 2345.42l8777.01 0c1669.97,0 3364.03,353.62 4668.03,1458.2 1221.81,1034.93 1807.68,2417.08 1807.68,4012.04 0,971.17 -193.23,1918.12 -650.91,2779.91 -369.4,695.59 -956.72,1237.83 -1616.34,1666.45l2904.01 6991.3 -7541.57 0 -1501.86 -3901.22 0 3901.22 -6846.05 0 0 -11063.68 -446.25 0 0 5618.96 -4747.79 0 0 5444.72 -6715.39 0 0 -16907.9 11909.43 0zm6846.05 5880.3l714.96 0c197.65,0 495.53,-21.72 667.88,-137.19 3.04,-20.75 3.54,-46.85 3.54,-62.33 0,-31.51 -1.96,-95.39 -11.32,-137.71 -118.4,-56.46 -407.12,-69.07 -511.29,-69.07l-863.77 0 0 406.3z"/>
  </g>
  <path class="fil2" d="M11533.95 12617.91l-4747.79 0 0 5444.72 -4334 0 0 -14526.52 10497.42 0 0 3462.84 -6163.42 0 0 2352.14 4747.79 0 0 3266.82zm15742.52 5444.72l-4940.17 0 -2137.98 -5553.61 -1372.06 0 0 5553.61 -4464.67 0 0 -14526.52 7586.32 0c1673.34,0 2972.83,392.01 3898.43,1176.05 925.59,784.04 1386.59,1818.54 1386.59,3103.5 0,838.49 -170.62,1578.97 -511.81,2221.44 -341.22,642.48 -1030.87,1208.72 -2072.63,1698.77l2627.98 6326.76zm-8450.21 -8646.22l1905.65 0c559.01,0 1009.09,-116.16 1350.3,-352.08 341.19,-235.97 511.81,-580.77 511.81,-1038.13 0,-932.87 -569.9,-1397.48 -1713.3,-1397.48l-2054.46 0 0 2787.69z"/>
  <g id="_2311341270528">
   <path class="fil3 str2" d="M16498.62 6646.72c51.91,19.92 209.7,225.6 254.37,277.2l1890.24 2245.34c44.23,56.16 82.72,94.8 127.91,147.08 23.76,27.49 32.44,45.65 56.36,74.49 27.79,33.54 38.81,41.93 67.42,78.26l1515.69 1791.45c37.14,49.32 86.47,112.57 125.75,150.04 44.22,-16.02 91.2,-82.59 128.54,-128.25l2421.8 -2796.85c49.78,-53.6 83.8,-90.25 130.1,-145.51l958.43 -1106.18c27.98,-32.5 34.77,-48.45 65.69,-81.54 48.92,-52.35 82.62,-92.88 129.96,-145.72l253.55 -300.43c-25.71,-50.24 -180.43,-187.73 -227.58,-238.08l-1058.03 -1053.37c-100.65,-99.8 -536.75,-569.99 -607.65,-570.68l-4303.42 -41.62c-26.93,-0.26 -203.64,184.72 -241.41,220.43 -85.82,81.16 -162.32,156.85 -244.17,235.96l-963.63 923.52c-83.25,82.53 -155.47,142.85 -238.04,225.22 -46.23,46.1 -75.28,72.32 -122.55,117.35 -27.49,26.21 -30.46,32.59 -56.34,55.94 -45.26,40.84 -33.01,10.1 -62.99,65.95z"/>
   <path class="fil3 str2" d="M18899.63 4988.81l336 -9.63 1123.54 6.71c154.52,23.59 324.86,31.52 482.74,13.81 186.5,-7.34 1008.16,-24.29 1139.64,19.37 -48.3,35.16 -99.06,104.86 -139.6,153.42 -111.48,133.52 -105.84,82.42 -123.91,172.78l1190.09 1000.71c62.48,55.63 135.52,110.46 198.2,163.92 70.79,60.39 153.1,116.42 205.86,194.35l-1203.86 -17.31c-37.35,14.57 -132.89,346.6 -156.97,413.45l-971.62 2916.22c-12.41,40.59 -2.72,22.56 -21.13,72.47l147.19 -203.2c168.28,-241.06 696.99,-962.89 805.09,-1149.58l660.15 -947.2c70.87,-89.09 93.38,-117.49 150.86,-213.33l593.68 -843.09c2.35,-3.97 5.57,-16.48 6.03,-12.96 0.35,2.68 3.4,-8.89 3.86,-10.38 0.29,-1.01 0.78,-5.35 1.61,-7.8 18.64,-97.8 -7.77,-388.65 -7.3,-515.85 0.62,-163.98 -9.75,-408.83 -12.87,-618.46 -35.23,-19.1 -56.74,-47.47 -89.05,-82.54 -20.69,-22.46 -29.07,-30.57 -48.11,-47.91 -32.77,-29.78 -15.1,-4.28 -46.45,-46.82 -12.82,6.77 -805.2,-318.66 -855.77,-386.51l470.04 9.77 -2139.07 -27.02c-249.25,-2.41 -2088.8,-53.21 -2155.63,-5.47 68.03,28.7 381.15,27.93 456.76,8.08z"/>
   <path class="fil3 str2" d="M20579.99 6672.72l-21.22 3.2 14.98 57.98c-5.48,185.41 62.09,627.78 86.16,850.97l185.94 1675.41c6.31,60.78 74.77,791.56 107.81,846.88l4.95 -18.08c18.41,-49.91 8.72,-31.88 21.13,-72.47l971.62 -2916.22c24.08,-66.85 119.62,-398.88 156.97,-413.45l1203.86 17.31c-52.76,-77.93 -135.07,-133.96 -205.86,-194.35 -62.68,-53.46 -135.72,-108.29 -198.2,-163.92l-1190.09 -1000.71c-8.93,65.6 148.39,566.85 176.85,663.55 68.78,233.71 130.02,446.51 195.93,683.74l-1510.83 -19.84z"/>
   <path class="fil3 str2" d="M20083.57 9927.78c19.23,-41.09 21.22,-97.93 28.84,-149.86 9.83,-66.77 21.6,-154.57 30.62,-213.57l430.72 -2830.45 -14.98 -57.98 -1543.92 -13.87c40.27,157.83 92.92,280.89 137.23,426.38 241.56,793.29 576.74,1714.37 836.59,2533.38l94.9 305.97z"/>
   <path class="fil3 str2" d="M17796.29 6731.07c46.23,51.52 23.17,83.48 71.73,107.57 62.01,51.45 385.28,516.72 492.86,672.01l607.14 854.28c2.73,4.12 10.36,16.19 13.04,20.31 175.19,267.6 365.85,517.28 544.11,770.88l558.4 771.66 -94.9 -305.97c-259.85,-819.01 -595.03,-1740.09 -836.59,-2533.38 -44.31,-145.49 -96.96,-268.55 -137.23,-426.38l-1253.97 -12.7c34.28,44.59 30.24,36.78 35.41,81.72z"/>
   <path class="fil3 str2" d="M24164.19 6704.34l-248.34 335.76c-44.32,53.53 -84.32,124.52 -127.79,168.23l-257.53 313.39c-153.72,213.13 -340.23,418.81 -449.48,566.36l-953.72 1220.22 146.5 -326.72c188.19,-426.5 416.58,-873.77 597.76,-1289.7 44.7,-102.65 101.55,-211.58 150.35,-312.23l293.64 -646.97 -593.68 843.09c-57.48,95.84 -79.99,124.24 -150.86,213.33l-660.15 947.2c-108.1,186.69 -636.81,908.52 -805.09,1149.58l-147.19 203.2 -4.95 18.08c-59.59,151.83 -120.64,350.34 -175.71,518.56 -50.23,153.46 -127.06,353.45 -166.44,514.43 54.03,-31.77 9.01,-3.01 52.03,-54.05l3358.09 -3876.15c24.16,-28.14 38.19,-40.27 61.6,-68.53l242.04 -277.49c48.02,-58.27 72.7,-88.41 119.69,-134.85 -12.48,-35.94 -0.45,-12.1 -19.77,-46.88 -43.8,39.17 -183.93,19.51 -261,22.14z"/>
   <path class="fil3 str2" d="M20083.57 9927.78c36.3,84.82 72.99,209.4 100.85,296.82 33.29,104.52 65.19,201.67 98.45,300.82 38.32,114.29 66.12,202.83 98.56,300.57 32.21,96.95 76.23,206.95 87.86,303.36 40.68,37.6 31.29,48.1 64.98,87.17 36.73,-20.58 8.81,0.32 37.81,-27.16 3.36,-3.18 13.31,-13.81 16.47,-17.46 18.4,-21.3 8.54,-9.02 22.96,-31.75 39.38,-160.98 116.21,-360.97 166.44,-514.43 55.07,-168.22 116.12,-366.73 175.71,-518.56 -33.04,-55.32 -101.5,-786.1 -107.81,-846.88l-185.94 -1675.41c-24.07,-223.19 -91.64,-665.56 -86.16,-850.97l-430.72 2830.45c-9.02,59 -20.79,146.8 -30.62,213.57 -7.62,51.93 -9.61,108.77 -28.84,149.86z"/>
   <path class="fil3 str2" d="M19513.01 5324.94c86.93,111.6 178.71,227.28 261.88,344.11l259.75 326.57c76.78,115.4 178.41,240.35 254.14,334.69l260.59 337.89 -1528.85 -23.48 -10.03 4.36 4.36 12.97 1543.92 13.87 21.22 -3.2c26.23,-66.51 358.55,-445.02 416.11,-506.65l64.91 -81.64c32.75,-39.04 41.98,-34.23 78.98,-83.03 47.24,-62.32 86.52,-112.24 131.12,-162.98l351.31 -414.15c16.76,-21.1 20.41,-24.87 37.61,-43.51l41.02 -44.58c-69.68,-34.06 -146.92,-57.63 -222.56,-85.46 -90.24,-33.22 -595.7,-215.3 -636.58,-251.02 -157.88,17.71 -328.22,9.78 -482.74,-13.81 -48.71,56.07 -376.66,155.55 -434.72,176.51 -70.84,25.61 -386.06,135.07 -411.44,162.54z"/>
   <path class="fil3 str2" d="M18206.66 5210.69c-45.07,20.9 -179.85,152.65 -208.32,194.05l-242.73 1240.03 5.27 4.58 1253.97 12.7 -4.36 -12.97 -1240.27 -9.53 421.39 -324.57c222.03,-153.57 553,-434.33 758.53,-571.8l550.3 -417.35c-17.29,-52.33 -216.15,-269.2 -264.81,-346.65l-336 9.63 -692.97 221.88z"/>
   <path class="fil3 str2" d="M23327.08 6701.54c-0.83,2.45 -1.32,6.79 -1.61,7.8 -0.46,1.49 -3.51,13.06 -3.86,10.38 -0.46,-3.52 -3.68,8.99 -6.03,12.96l-293.64 646.97c-48.8,100.65 -105.65,209.58 -150.35,312.23 -181.18,415.93 -409.57,863.2 -597.76,1289.7l-146.5 326.72 953.72 -1220.22c109.25,-147.55 295.76,-353.23 449.48,-566.36l257.53 -313.39c43.47,-43.71 83.47,-114.7 127.79,-168.23l248.34 -335.76 -5.18 -18.62c-3.01,3.14 -7.59,5.69 -10.13,6.92 -2.59,1.25 -7.21,4.87 -10.48,6.18 -3.37,1.36 -7.27,3.62 -11.15,4.79 -4.08,1.23 -7.58,2.12 -12.01,3l-788.16 -5.07z"/>
   <path class="fil3 str2" d="M20579.99 6672.72l1510.83 19.84c-65.91,-237.23 -127.15,-450.03 -195.93,-683.74 -28.46,-96.7 -185.78,-597.95 -176.85,-663.55l-16.99 -9.09 -41.02 44.58c-17.2,18.64 -20.85,22.41 -37.61,43.51l-351.31 414.15c-44.6,50.74 -83.88,100.66 -131.12,162.98 -37,48.8 -46.23,43.99 -78.98,83.03l-64.91 81.64c-57.56,61.63 -389.88,440.14 -416.11,506.65z"/>
   <path class="fil3 str2" d="M19020.52 6644.72l1528.85 23.48 -260.59 -337.89c-75.73,-94.34 -177.36,-219.29 -254.14,-334.69l-259.75 -326.57c-83.17,-116.83 -174.95,-232.51 -261.88,-344.11l-12.57 0.89c-76.97,229.28 -173.16,432.64 -240.69,663.15 -29.05,99.06 -81.02,224.86 -116.33,321.55 -41.04,112.37 -78.92,220.9 -122.9,334.19z"/>
   <path class="fil3 str2" d="M16690.93 6674.52c35.08,-43.14 -47.64,-57.59 55.23,-30.96 248.31,2.4 212.39,-14.42 346.69,175.25l1084.67 1414.7c35.38,44.67 75.67,94.79 120.25,159.01l244.69 308.04c42.27,49.03 211.25,297.58 224.48,301.68 -11.47,-96.13 -639.15,-1469.95 -730.26,-1694.29 -43.04,-105.95 -234.46,-501.58 -240.39,-576.88 -5.17,-44.94 -1.13,-37.13 -35.41,-81.72l-5.27 -4.58 -1033.02 -10.02c-27.46,11.01 -17.72,-38.06 -31.66,39.77z"/>
   <path class="fil3 str2" d="M18766.94 9002.24c52.81,60.35 106.56,141.39 159.07,215.68 62.72,88.73 47.91,44.15 163.06,213.1 36.13,52.99 279.09,325.34 326.42,436.62 69.01,80.83 131.04,168.26 204.64,257.38l648.67 765.33c22.24,-27.93 11.47,6.35 -0.45,-29.3 -8.15,-24.42 -1.25,-7.53 -14.83,-27.62l-1854 -3092.55c-34.86,-52.59 -38.35,-77.34 -72.9,-127.95 -58.77,-86.12 -100.62,-164.18 -151.28,-248.31l-150.77 -248.44c-31.02,-51.14 -47.58,-78.36 -74.15,-125.98 -41.68,-74.76 -53.78,-62.33 -82.4,-151.56 -48.56,-24.09 -25.5,-56.05 -71.73,-107.57 5.93,75.3 197.35,470.93 240.39,576.88 91.11,224.34 718.79,1598.16 730.26,1694.29z"/>
   <path class="fil3 str2" d="M20268.8 10890.35c12.21,22.42 15.58,33.08 38.06,58.96 18.95,21.8 28.8,29.17 53.47,58.07 26.96,31.56 80.38,102.01 108.96,121.97 -11.63,-96.41 -55.65,-206.41 -87.86,-303.36 -32.44,-97.74 -60.24,-186.28 -98.56,-300.57 -33.26,-99.15 -65.16,-196.3 -98.45,-300.82 -27.86,-87.42 -64.55,-212 -100.85,-296.82l-558.4 -771.66c-178.26,-253.6 -368.92,-503.28 -544.11,-770.88 -2.68,-4.12 -10.31,-16.19 -13.04,-20.31l-607.14 -854.28c-107.58,-155.29 -430.85,-620.56 -492.86,-672.01 28.62,89.23 40.72,76.8 82.4,151.56 26.57,47.62 43.13,74.84 74.15,125.98l150.77 248.44c50.66,84.13 92.51,162.19 151.28,248.31 34.55,50.61 38.04,75.36 72.9,127.95l1854 3092.55c13.58,20.09 6.68,3.2 14.83,27.62 11.92,35.65 22.69,1.37 0.45,29.3z"/>
   <path class="fil3 str2" d="M19010.49 6649.08l10.03 -4.36c43.98,-113.29 81.86,-221.82 122.9,-334.19 35.31,-96.69 87.28,-222.49 116.33,-321.55 67.53,-230.51 163.72,-433.87 240.69,-663.15l-550.3 417.35c-205.53,137.47 -536.5,418.23 -758.53,571.8l-421.39 324.57 1240.27 9.53z"/>
   <path class="fil3 str2" d="M16722.59 6634.75l1033.02 10.02 242.73 -1240.03c-62.93,25.83 -182.88,165.39 -247.43,224.11 -30.34,27.59 -45.71,48.3 -79.42,79.8l-638.62 609.23c-69.54,61.32 -258.06,235.8 -310.28,316.87z"/>
   <path class="fil3 str2" d="M23327.08 6701.54l788.16 5.07c4.43,-0.88 7.93,-1.77 12.01,-3 3.88,-1.17 7.78,-3.43 11.15,-4.79 3.27,-1.31 7.89,-4.93 10.48,-6.18 2.54,-1.23 7.12,-3.78 10.13,-6.92l-317.19 -443.38c-91.95,-129.65 -172.45,-210.15 -247.64,-325.84 -14.48,-22.25 -49.47,-96 -49.63,-98.24 -30.53,-56.08 -77.7,-83.66 -118.86,-124.86 -22.18,-22.21 -32.66,-36.39 -54.15,-58.97 -22.24,-23.37 -45.37,-45.14 -64.63,-67.2 3.12,209.63 13.49,454.48 12.87,618.46 -0.47,127.2 25.94,418.05 7.3,515.85z"/>
   <path class="fil3 str2" d="M19415.49 9867.64c-47.33,-111.28 -290.29,-383.63 -326.42,-436.62 -115.15,-168.95 -100.34,-124.37 -163.06,-213.1 -52.51,-74.29 -106.26,-155.33 -159.07,-215.68 -13.23,-4.1 -182.21,-252.65 -224.48,-301.68l-244.69 -308.04c-44.58,-64.22 -84.87,-114.34 -120.25,-159.01l-1084.67 -1414.7c-134.3,-189.67 -98.38,-172.85 -346.69,-175.25 -102.87,-26.63 -20.15,-12.18 -55.23,30.96 53.57,35.13 199.96,213.93 257.87,284.51 35.16,42.87 57.32,62.36 90.37,103.96l338.83 407.73c14.22,16.77 23.9,24.73 38.83,42.21l1052.57 1249.91c224.34,279.28 542.53,624.79 764.76,904.95l181.33 199.85z"/>
   <path class="fil3 str2" d="M21701.05 5336.18l16.99 9.09c18.07,-90.36 12.43,-39.26 123.91,-172.78 40.54,-48.56 91.3,-118.26 139.6,-153.42 -131.48,-43.66 -953.14,-26.71 -1139.64,-19.37 40.88,35.72 546.34,217.8 636.58,251.02 75.64,27.83 152.88,51.4 222.56,85.46z"/>
   <path class="fil3 str2" d="M19500.44 5325.83l12.57 -0.89c25.38,-27.47 340.6,-136.93 411.44,-162.54 58.06,-20.96 386.01,-120.44 434.72,-176.51l-1123.54 -6.71c48.66,77.45 247.52,294.32 264.81,346.65z"/>
   <path class="fil3 str2" d="M24159.01 6685.72l5.18 18.62c77.07,-2.63 217.2,17.03 261,-22.14 -43.71,-34.33 -72.76,-59.96 -110.67,-102.26l-652.96 -660.87c-19.98,-19.9 -98.63,-88.85 -117.01,-100.81 0.16,2.24 35.15,75.99 49.63,98.24 75.19,115.69 155.69,196.19 247.64,325.84l317.19 443.38z"/>
   <path class="fil3 str2" d="M23123.3 5389.96c-64.24,-60.47 -122.66,-119.42 -185.97,-184.57 -36.42,-37.5 -59.77,-53.65 -98.5,-92.36 -40.76,-40.8 -54.56,-67.23 -101.26,-99.81l-470.04 -9.77c50.57,67.85 842.95,393.28 855.77,386.51z"/>
   <path class="fil3 str2" d="M18206.66 5210.69l692.97 -221.88c-75.61,19.85 -388.73,20.62 -456.76,-8.08 -47.15,16.79 -68.56,53.7 -120.65,99.6 -46.97,41.36 -86.78,64.13 -115.56,130.36z"/>
  </g>
  <g id="_2311341270528_0">
   <path class="fil4 str3" d="M17583.41 6856.47c38.05,14.6 153.71,165.36 186.45,203.19l1385.55 1645.83c32.42,41.17 60.63,69.5 93.75,107.81 17.42,20.16 23.79,33.47 41.32,54.61 20.37,24.58 28.45,30.73 49.42,57.36l1111 1313.14c27.22,36.14 63.38,82.51 92.18,109.97 32.41,-11.74 66.84,-60.53 94.21,-94l1775.18 -2050.1c36.49,-39.29 61.43,-66.15 95.37,-106.65l702.53 -810.84c20.51,-23.82 25.48,-35.51 48.15,-59.76 35.85,-38.38 60.56,-68.08 95.26,-106.82l185.85 -220.21c-18.85,-36.83 -132.26,-137.61 -166.81,-174.52l-775.54 -772.11c-73.78,-73.16 -393.44,-417.81 -445.41,-418.31l-3154.4 -30.51c-19.75,-0.19 -149.28,135.4 -176.96,161.58 -62.9,59.48 -118.98,114.96 -178.98,172.95l-706.34 676.95c-61.02,60.49 -113.96,104.71 -174.48,165.08 -33.89,33.79 -55.18,53.01 -89.83,86.01 -20.15,19.22 -22.33,23.89 -41.3,41.01 -33.17,29.94 -24.19,7.4 -46.17,48.34z"/>
   <path class="fil4 str3" d="M19343.35 5641.22l246.29 -7.05 823.55 4.92c113.27,17.28 238.13,23.1 353.85,10.12 136.71,-5.38 738.98,-17.81 835.36,14.19 -35.4,25.78 -72.61,76.87 -102.33,112.46 -81.71,97.87 -77.58,60.42 -90.83,126.65l872.34 733.52c45.8,40.78 99.34,80.97 145.28,120.15 51.89,44.27 112.23,85.34 150.9,142.46l-882.43 -12.69c-27.38,10.68 -97.41,254.07 -115.06,303.06l-712.2 2137.6c-9.1,29.75 -1.99,16.53 -15.49,53.12l107.89 -148.95c123.35,-176.7 510.9,-705.8 590.14,-842.64l483.89 -694.3c51.94,-65.31 68.44,-86.12 110.58,-156.37l435.16 -617.99c1.73,-2.91 4.08,-12.08 4.42,-9.5 0.26,1.96 2.49,-6.52 2.83,-7.61 0.22,-0.74 0.58,-3.92 1.18,-5.72 13.67,-71.68 -5.69,-284.88 -5.35,-378.11 0.46,-120.2 -7.14,-299.67 -9.43,-453.34 -25.83,-14 -41.59,-34.79 -65.28,-60.5 -15.16,-16.46 -21.31,-22.4 -35.26,-35.11 -24.02,-21.83 -11.07,-3.14 -34.05,-34.33 -9.4,4.97 -590.21,-233.57 -627.28,-283.3l344.54 7.16 -1567.94 -19.81c-182.7,-1.77 -1531.09,-39 -1580.07,-4.01 49.86,21.04 279.38,20.47 334.8,5.92z"/>
   <path class="fil4 str3" d="M20575.06 6875.53l-15.56 2.35 10.98 42.5c-4.01,135.9 45.51,460.16 63.15,623.75l136.3 1228.08c4.62,44.55 54.81,580.21 79.02,620.76l3.63 -13.24c13.5,-36.59 6.39,-23.37 15.49,-53.12l712.2 -2137.6c17.65,-48.99 87.68,-292.38 115.06,-303.06l882.43 12.69c-38.67,-57.12 -99.01,-98.19 -150.9,-142.46 -45.94,-39.18 -99.48,-79.37 -145.28,-120.15l-872.34 -733.52c-6.54,48.08 108.78,415.5 129.63,486.38 50.42,171.31 95.31,327.29 143.62,501.18l-1107.43 -14.54z"/>
   <path class="fil4 str3" d="M20211.18 9261.49c14.09,-30.12 15.55,-71.79 21.13,-109.85 7.21,-48.94 15.84,-113.29 22.46,-156.54l315.71 -2074.72 -10.98 -42.5 -1131.69 -10.17c29.51,115.69 68.11,205.89 100.59,312.54 177.06,581.48 422.75,1256.63 613.22,1856.96l69.56 224.28z"/>
   <path class="fil4 str3" d="M18534.6 6918.3c33.89,37.77 16.99,61.19 52.58,78.85 45.46,37.71 282.41,378.76 361.26,492.59l445.04 626.18c2,3.02 7.59,11.87 9.56,14.89 128.42,196.15 268.17,379.17 398.83,565.05l409.31 565.63 -69.56 -224.28c-190.47,-600.33 -436.16,-1275.48 -613.22,-1856.96 -32.48,-106.65 -71.08,-196.85 -100.59,-312.54l-919.16 -9.31c25.12,32.68 22.17,26.96 25.95,59.9z"/>
   <path class="fil4 str3" d="M23202.27 6898.71l-182.03 246.11c-32.49,39.24 -61.81,91.27 -93.67,123.31l-188.77 229.72c-112.67,156.22 -249.39,306.99 -329.47,415.14l-699.08 894.42 107.39 -239.49c137.94,-312.62 305.36,-640.47 438.15,-945.35 32.77,-75.24 74.45,-155.08 110.21,-228.86l215.24 -474.23 -435.16 617.99c-42.14,70.25 -58.64,91.06 -110.58,156.37l-483.89 694.3c-79.24,136.84 -466.79,665.94 -590.14,842.64l-107.89 148.95 -3.63 13.24c-43.67,111.3 -88.43,256.8 -128.79,380.11 -36.82,112.49 -93.13,259.08 -122,377.08 39.61,-23.29 6.6,-2.21 38.14,-39.62l2461.48 -2841.22c17.71,-20.63 27.99,-29.51 45.15,-50.23l177.41 -203.4c35.21,-42.71 53.29,-64.81 87.74,-98.85 -9.15,-26.34 -0.33,-8.87 -14.49,-34.36 -32.11,28.71 -134.82,14.3 -191.32,16.23z"/>
   <path class="fil4 str3" d="M20211.18 9261.49c26.61,62.17 53.5,153.49 73.92,217.57 24.41,76.61 47.79,147.82 72.16,220.5 28.1,83.78 48.47,148.67 72.25,220.32 23.61,71.06 55.87,151.69 64.4,222.36 29.82,27.56 22.94,35.26 47.63,63.9 26.92,-15.09 6.46,0.23 27.71,-19.91 2.47,-2.33 9.76,-10.12 12.08,-12.8 13.48,-15.61 6.26,-6.61 16.83,-23.27 28.87,-118 85.18,-264.59 122,-377.08 40.36,-123.31 85.12,-268.81 128.79,-380.11 -24.21,-40.55 -74.4,-576.21 -79.02,-620.76l-136.3 -1228.08c-17.64,-163.59 -67.16,-487.85 -63.15,-623.75l-315.71 2074.72c-6.62,43.25 -15.25,107.6 -22.46,156.54 -5.58,38.06 -7.04,79.73 -21.13,109.85z"/>
   <path class="fil4 str3" d="M19792.96 5887.61c63.72,81.8 130.99,166.6 191.95,252.23l190.4 239.38c56.28,84.58 130.78,176.17 186.29,245.32l191.01 247.68 -1120.64 -17.22 -7.36 3.21 3.2 9.5 1131.69 10.17 15.56 -2.35c19.22,-48.75 262.81,-326.2 305,-371.37l47.58 -59.84c24.01,-28.62 30.78,-25.09 57.9,-60.87 34.62,-45.68 63.41,-82.27 96.11,-119.46l257.5 -303.57c12.29,-15.47 14.97,-18.23 27.57,-31.89l30.07 -32.68c-51.07,-24.97 -107.69,-42.25 -163.14,-62.65 -66.14,-24.34 -436.64,-157.81 -466.61,-183.99 -115.72,12.98 -240.58,7.16 -353.85,-10.12 -35.7,41.09 -276.09,114.01 -318.65,129.38 -51.92,18.77 -282.98,99 -301.58,119.14z"/>
   <path class="fil4 str3" d="M18835.4 5803.86c-33.03,15.32 -131.83,111.9 -152.7,142.25l-177.91 908.93 3.86 3.36 919.16 9.31 -3.2 -9.5 -909.12 -7 308.88 -237.9c162.75,-112.57 405.35,-318.36 556.01,-419.13l403.36 -305.92c-12.67,-38.36 -158.44,-197.33 -194.1,-254.09l-246.29 7.05 -507.95 162.64z"/>
   <path class="fil4 str3" d="M22588.67 6896.65c-0.6,1.8 -0.96,4.98 -1.18,5.72 -0.34,1.09 -2.57,9.57 -2.83,7.61 -0.34,-2.58 -2.69,6.59 -4.42,9.5l-215.24 474.23c-35.76,73.78 -77.44,153.62 -110.21,228.86 -132.79,304.88 -300.21,632.73 -438.15,945.35l-107.39 239.49 699.08 -894.42c80.08,-108.15 216.8,-258.92 329.47,-415.14l188.77 -229.72c31.86,-32.04 61.18,-84.07 93.67,-123.31l182.03 -246.11 -3.8 -13.65c-2.2,2.3 -5.56,4.17 -7.42,5.07 -1.9,0.92 -5.28,3.57 -7.68,4.53 -2.47,1 -5.33,2.65 -8.18,3.51 -2.98,0.91 -5.55,1.56 -8.8,2.2l-577.72 -3.72z"/>
   <path class="fil4 str3" d="M20575.06 6875.53l1107.43 14.54c-48.31,-173.89 -93.2,-329.87 -143.62,-501.18 -20.85,-70.88 -136.17,-438.3 -129.63,-486.38l-12.45 -6.66 -30.07 32.68c-12.6,13.66 -15.28,16.42 -27.57,31.89l-257.5 303.57c-32.7,37.19 -61.49,73.78 -96.11,119.46 -27.12,35.78 -33.89,32.25 -57.9,60.87l-47.58 59.84c-42.19,45.17 -285.78,322.62 -305,371.37z"/>
   <path class="fil4 str3" d="M19431.97 6855l1120.64 17.22 -191.01 -247.68c-55.51,-69.15 -130.01,-160.74 -186.29,-245.32l-190.4 -239.38c-60.96,-85.63 -128.23,-170.43 -191.95,-252.23l-9.22 0.65c-56.42,168.06 -126.92,317.13 -176.42,486.09 -21.3,72.61 -59.39,164.83 -85.27,235.7 -30.08,82.37 -57.85,161.92 -90.08,244.95z"/>
   <path class="fil4 str3" d="M17724.37 6876.85c25.71,-31.62 -34.92,-42.21 40.49,-22.7 182.01,1.77 155.68,-10.56 254.12,128.47l795.06 1036.97c25.94,32.74 55.47,69.48 88.15,116.55l179.36 225.8c30.98,35.94 154.84,218.12 164.54,221.13 -8.41,-70.46 -468.5,-1077.48 -535.28,-1241.92 -31.55,-77.66 -171.86,-367.65 -176.21,-422.85 -3.78,-32.94 -0.83,-27.22 -25.95,-59.9l-3.86 -3.36 -757.21 -7.34c-20.13,8.07 -12.99,-27.9 -23.21,29.15z"/>
   <path class="fil4 str3" d="M19246.09 8583.07c38.71,44.24 78.11,103.64 116.6,158.09 45.97,65.04 35.12,32.36 119.52,156.21 26.48,38.84 204.57,238.47 239.27,320.04 50.58,59.25 96.04,123.33 150,188.66l475.47 560.98c16.31,-20.47 8.41,4.66 -0.33,-21.47 -5.97,-17.9 -0.91,-5.52 -10.87,-20.25l-1358.98 -2266.83c-25.55,-38.56 -28.11,-56.7 -53.44,-93.79 -43.08,-63.13 -73.75,-120.35 -110.89,-182.01l-110.51 -182.11c-22.74,-37.49 -34.87,-57.44 -54.35,-92.35 -30.55,-54.79 -39.42,-45.68 -60.4,-111.09 -35.59,-17.66 -18.69,-41.08 -52.58,-78.85 4.35,55.2 144.66,345.19 176.21,422.85 66.78,164.44 526.87,1171.46 535.28,1241.92z"/>
   <path class="fil4 str3" d="M20346.95 9967.05c8.95,16.44 11.42,24.25 27.9,43.22 13.89,15.98 21.11,21.38 39.19,42.57 19.76,23.13 58.92,74.77 79.87,89.4 -8.53,-70.67 -40.79,-151.3 -64.4,-222.36 -23.78,-71.65 -44.15,-136.54 -72.25,-220.32 -24.37,-72.68 -47.75,-143.89 -72.16,-220.5 -20.42,-64.08 -47.31,-155.4 -73.92,-217.57l-409.31 -565.63c-130.66,-185.88 -270.41,-368.9 -398.83,-565.05 -1.97,-3.02 -7.56,-11.87 -9.56,-14.89l-445.04 -626.18c-78.85,-113.83 -315.8,-454.88 -361.26,-492.59 20.98,65.41 29.85,56.3 60.4,111.09 19.48,34.91 31.61,54.86 54.35,92.35l110.51 182.11c37.14,61.66 67.81,118.88 110.89,182.01 25.33,37.09 27.89,55.23 53.44,93.79l1358.98 2266.83c9.96,14.73 4.9,2.35 10.87,20.25 8.74,26.13 16.64,1 0.33,21.47z"/>
   <path class="fil4 str3" d="M19424.61 6858.21l7.36 -3.21c32.23,-83.03 60,-162.58 90.08,-244.95 25.88,-70.87 63.97,-163.09 85.27,-235.7 49.5,-168.96 120,-318.03 176.42,-486.09l-403.36 305.92c-150.66,100.77 -393.26,306.56 -556.01,419.13l-308.88 237.9 909.12 7z"/>
   <path class="fil4 str3" d="M17747.58 6847.7l757.21 7.34 177.91 -908.93c-46.12,18.93 -134.05,121.22 -181.36,164.27 -22.24,20.22 -33.51,35.4 -58.22,58.49l-468.11 446.56c-50.96,44.95 -189.15,172.84 -227.43,232.27z"/>
   <path class="fil4 str3" d="M22588.67 6896.65l577.72 3.72c3.25,-0.64 5.82,-1.29 8.8,-2.2 2.85,-0.86 5.71,-2.51 8.18,-3.51 2.4,-0.96 5.78,-3.61 7.68,-4.53 1.86,-0.9 5.22,-2.77 7.42,-5.07l-232.5 -325c-67.4,-95.03 -126.4,-154.04 -181.51,-238.84 -10.62,-16.31 -36.26,-70.36 -36.39,-72.01 -22.37,-41.1 -56.95,-61.32 -87.12,-91.52 -16.26,-16.28 -23.93,-26.67 -39.69,-43.23 -16.3,-17.13 -33.26,-33.08 -47.37,-49.26 2.29,153.67 9.89,333.14 9.43,453.34 -0.34,93.23 19.02,306.43 5.35,378.11z"/>
   <path class="fil4 str3" d="M19721.48 9217.41c-34.7,-81.57 -212.79,-281.2 -239.27,-320.04 -84.4,-123.85 -73.55,-91.17 -119.52,-156.21 -38.49,-54.45 -77.89,-113.85 -116.6,-158.09 -9.7,-3.01 -133.56,-185.19 -164.54,-221.13l-179.36 -225.8c-32.68,-47.07 -62.21,-83.81 -88.15,-116.55l-795.06 -1036.97c-98.44,-139.03 -72.11,-126.7 -254.12,-128.47 -75.41,-19.51 -14.78,-8.92 -40.49,22.7 39.27,25.75 146.57,156.81 189.02,208.55 25.78,31.42 42.02,45.71 66.25,76.2l248.35 298.86c10.43,12.3 17.53,18.13 28.47,30.95l771.53 916.18c164.45,204.71 397.67,457.97 560.57,663.32l132.92 146.5z"/>
   <path class="fil4 str3" d="M21396.79 5895.85l12.45 6.66c13.25,-66.23 9.12,-28.78 90.83,-126.65 29.72,-35.59 66.93,-86.68 102.33,-112.46 -96.38,-32 -698.65,-19.57 -835.36,-14.19 29.97,26.18 400.47,159.65 466.61,183.99 55.45,20.4 112.07,37.68 163.14,62.65z"/>
   <path class="fil4 str3" d="M19783.74 5888.26l9.22 -0.65c18.6,-20.14 249.66,-100.37 301.58,-119.14 42.56,-15.37 282.95,-88.29 318.65,-129.38l-823.55 -4.92c35.66,56.76 181.43,215.73 194.1,254.09z"/>
   <path class="fil4 str3" d="M23198.47 6885.06l3.8 13.65c56.5,-1.93 159.21,12.48 191.32,-16.23 -32.04,-25.16 -53.33,-43.95 -81.12,-74.96l-478.62 -484.42c-14.65,-14.58 -72.3,-65.12 -85.78,-73.89 0.13,1.65 25.77,55.7 36.39,72.01 55.11,84.8 114.11,143.81 181.51,238.84l232.5 325z"/>
   <path class="fil4 str3" d="M22439.3 5935.26c-47.09,-44.32 -89.91,-87.52 -136.31,-135.28 -26.7,-27.49 -43.82,-39.32 -72.2,-67.71 -29.88,-29.9 -40,-49.27 -74.23,-73.15l-344.54 -7.16c37.07,49.73 617.88,288.27 627.28,283.3z"/>
   <path class="fil4 str3" d="M18835.4 5803.86l507.95 -162.64c-55.42,14.55 -284.94,15.12 -334.8,-5.92 -34.57,12.31 -50.26,39.36 -88.44,73.01 -34.43,30.32 -63.61,47.01 -84.71,95.55z"/>
  </g>
 </g>
</svg>
